<svg width="817" height="280" xmlns="http://www.w3.org/2000/svg" xmlns:xlink="http://www.w3.org/1999/xlink" xml:space="preserve" overflow="hidden"><defs><clipPath id="clip0"><rect x="808" y="433" width="54" height="122"/></clipPath><clipPath id="clip1"><rect x="808" y="433" width="54" height="122"/></clipPath><clipPath id="clip2"><rect x="808" y="549" width="54" height="122"/></clipPath><clipPath id="clip3"><rect x="808" y="549" width="54" height="122"/></clipPath></defs><g transform="translate(-313 -421)"><g><g><g><g><text fill="#BFBFBF" fill-opacity="1" font-family="Aptos Display,Aptos Display_MSFontService,sans-serif" font-style="normal" font-variant="normal" font-weight="700" font-stretch="normal" font-size="56" text-anchor="start" direction="ltr" writing-mode="lr-tb" unicode-bidi="normal" text-decoration="none" transform="matrix(0.579545 0 0 0.578838 333.871 540)">Mushroom </text><text fill="#BFBFBF" fill-opacity="1" font-family="Aptos Display,Aptos Display_MSFontService,sans-serif" font-style="normal" font-variant="normal" font-weight="700" font-stretch="normal" font-size="56" text-anchor="start" direction="ltr" writing-mode="lr-tb" unicode-bidi="normal" text-decoration="none" transform="matrix(0.579545 0 0 0.578838 350.841 578)">Features</text><text fill="#BFBFBF" fill-opacity="1" font-family="Aptos,Aptos_MSFontService,sans-serif" font-style="normal" font-variant="normal" font-weight="400" font-stretch="normal" font-size="24" text-anchor="start" direction="ltr" writing-mode="lr-tb" unicode-bidi="normal" text-decoration="none" transform="matrix(0.579545 0 0 0.578838 800.517 453)">Categorical</text><text fill="#BFBFBF" fill-opacity="1" font-family="Aptos,Aptos_MSFontService,sans-serif" font-style="normal" font-variant="normal" font-weight="400" font-stretch="normal" font-size="28" text-anchor="start" direction="ltr" writing-mode="lr-tb" unicode-bidi="normal" text-decoration="none" transform="matrix(0.579545 0 0 0.578838 647.958 488)">Fill </text><text fill="#BFBFBF" fill-opacity="1" font-family="Aptos,Aptos_MSFontService,sans-serif" font-style="normal" font-variant="normal" font-weight="400" font-stretch="normal" font-size="28" text-anchor="start" direction="ltr" writing-mode="lr-tb" unicode-bidi="normal" text-decoration="none" transform="matrix(0.579545 0 0 0.578838 671.91 488)">missing values </text><text fill="#BFBFBF" fill-opacity="1" font-family="Aptos,Aptos_MSFontService,sans-serif" font-style="normal" font-variant="normal" font-weight="400" font-stretch="normal" font-size="28" text-anchor="start" direction="ltr" writing-mode="lr-tb" unicode-bidi="normal" text-decoration="none" transform="matrix(0.579545 0 0 0.578838 647.958 508)">using median</text><text fill="#444444" fill-opacity="1" font-family="Aptos Display,Aptos Display_MSFontService,sans-serif" font-style="normal" font-variant="normal" font-weight="700" font-stretch="normal" font-size="132" text-anchor="start" direction="ltr" writing-mode="lr-tb" unicode-bidi="normal" text-decoration="none" transform="matrix(0.579545 0 0 0.578838 597.611 517)">1</text><g clip-path="url(#clip0)"><g clip-path="url(#clip1)"><path d="M8.32853 60.238 96.583 60.238 86.0822 70.7387C84.7127 72.1082 84.7127 74.3279 86.0822 75.6973 87.4511 77.0662 89.6713 77.0662 91.0402 75.6973L107.556 59.1768C108.925 57.8729 108.978 55.706 107.674 54.3368 107.635 54.2966 107.596 54.2572 107.556 54.2188L91.0367 37.7034C89.7328 36.3342 87.5658 36.2813 86.1964 37.5853 86.1564 37.6237 86.117 37.6631 86.0787 37.7034 84.7093 39.0074 84.6565 41.1743 85.9605 42.5434 85.9987 42.5837 86.0382 42.6231 86.0787 42.6615L96.5795 53.1681 8.32853 53.1681C6.37262 53.1681 4.78699 54.7537 4.78699 56.7097 4.78699 58.6656 6.37262 60.2513 8.32853 60.2513Z" fill="#444444" fill-rule="nonzero" fill-opacity="1" transform="matrix(1 0 0 1.06749 748.34 433.577)"/></g></g><text fill="#BFBFBF" fill-opacity="1" font-family="Aptos,Aptos_MSFontService,sans-serif" font-style="normal" font-variant="normal" font-weight="400" font-stretch="normal" font-size="28" text-anchor="start" direction="ltr" writing-mode="lr-tb" unicode-bidi="normal" text-decoration="none" transform="matrix(0.579545 0 0 0.578838 954.641 487)">Scale to zero mean </text><text fill="#BFBFBF" fill-opacity="1" font-family="Aptos,Aptos_MSFontService,sans-serif" font-style="normal" font-variant="normal" font-weight="400" font-stretch="normal" font-size="28" text-anchor="start" direction="ltr" writing-mode="lr-tb" unicode-bidi="normal" text-decoration="none" transform="matrix(0.579545 0 0 0.578838 954.641 507)">and unit variance</text><text fill="#444444" fill-opacity="1" font-family="Aptos Display,Aptos Display_MSFontService,sans-serif" font-style="normal" font-variant="normal" font-weight="700" font-stretch="normal" font-size="132" text-anchor="start" direction="ltr" writing-mode="lr-tb" unicode-bidi="normal" text-decoration="none" transform="matrix(0.579545 0 0 0.578838 896.53 516)">2</text><text fill="#BFBFBF" fill-opacity="1" font-family="Aptos,Aptos_MSFontService,sans-serif" font-style="normal" font-variant="normal" font-weight="400" font-stretch="normal" font-size="28" text-anchor="start" direction="ltr" writing-mode="lr-tb" unicode-bidi="normal" text-decoration="none" transform="matrix(0.579545 0 0 0.578838 652.332 605)">Fill </text><text fill="#BFBFBF" fill-opacity="1" font-family="Aptos,Aptos_MSFontService,sans-serif" font-style="normal" font-variant="normal" font-weight="400" font-stretch="normal" font-size="28" text-anchor="start" direction="ltr" writing-mode="lr-tb" unicode-bidi="normal" text-decoration="none" transform="matrix(0.579545 0 0 0.578838 676.284 605)">missing values </text><text fill="#BFBFBF" fill-opacity="1" font-family="Aptos,Aptos_MSFontService,sans-serif" font-style="normal" font-variant="normal" font-weight="400" font-stretch="normal" font-size="28" text-anchor="start" direction="ltr" writing-mode="lr-tb" unicode-bidi="normal" text-decoration="none" transform="matrix(0.579545 0 0 0.578838 652.332 625)">using </text><text fill="#BFBFBF" fill-opacity="1" font-family="Aptos,Aptos_MSFontService,sans-serif" font-style="normal" font-variant="normal" font-weight="400" font-stretch="normal" font-size="28" text-anchor="start" direction="ltr" writing-mode="lr-tb" unicode-bidi="normal" text-decoration="none" transform="matrix(0.579545 0 0 0.578838 692.604 625)">“missing”</text><text fill="#444444" fill-opacity="1" font-family="Aptos Display,Aptos Display_MSFontService,sans-serif" font-style="normal" font-variant="normal" font-weight="700" font-stretch="normal" font-size="132" text-anchor="start" direction="ltr" writing-mode="lr-tb" unicode-bidi="normal" text-decoration="none" transform="matrix(0.579545 0 0 0.578838 601.985 634)">1</text><text fill="#BFBFBF" fill-opacity="1" font-family="Aptos,Aptos_MSFontService,sans-serif" font-style="normal" font-variant="normal" font-weight="400" font-stretch="normal" font-size="28" text-anchor="start" direction="ltr" writing-mode="lr-tb" unicode-bidi="normal" text-decoration="none" transform="matrix(0.579545 0 0 0.578838 959.011 604)">Convert categories to </text><text fill="#BFBFBF" fill-opacity="1" font-family="Aptos,Aptos_MSFontService,sans-serif" font-style="normal" font-variant="normal" font-weight="400" font-stretch="normal" font-size="28" text-anchor="start" direction="ltr" writing-mode="lr-tb" unicode-bidi="normal" text-decoration="none" transform="matrix(0.579545 0 0 0.578838 959.011 624)">binary vectors</text><text fill="#444444" fill-opacity="1" font-family="Aptos Display,Aptos Display_MSFontService,sans-serif" font-style="normal" font-variant="normal" font-weight="700" font-stretch="normal" font-size="132" text-anchor="start" direction="ltr" writing-mode="lr-tb" unicode-bidi="normal" text-decoration="none" transform="matrix(0.579545 0 0 0.578838 900.9 633)">2</text><g clip-path="url(#clip2)"><g clip-path="url(#clip3)"><path d="M8.32853 60.238 96.583 60.238 86.0822 70.7387C84.7127 72.1082 84.7127 74.3279 86.0822 75.6973 87.4511 77.0662 89.6713 77.0662 91.0402 75.6973L107.556 59.1768C108.925 57.8729 108.978 55.706 107.674 54.3368 107.635 54.2966 107.596 54.2572 107.556 54.2188L91.0367 37.7034C89.7328 36.3342 87.5658 36.2813 86.1964 37.5853 86.1564 37.6237 86.117 37.6631 86.0787 37.7034 84.7093 39.0074 84.6565 41.1743 85.9605 42.5434 85.9987 42.5837 86.0382 42.6231 86.0787 42.6615L96.5795 53.1681 8.32853 53.1681C6.37262 53.1681 4.78699 54.7537 4.78699 56.7097 4.78699 58.6656 6.37262 60.2513 8.32853 60.2513Z" fill="#444444" fill-rule="nonzero" fill-opacity="1" transform="matrix(1 0 0 1.06749 748.34 549.344)"/></g></g><path d="M448.58 136.895 642.528 136.895 642.528 146.164C642.528 148.417 644.351 150.243 646.603 150.243L730.395 150.243C732.641 150.243 734.465 148.417 734.465 146.164L734.465 136.895 966.677 136.895C974.821 136.895 981.42 143.504 981.42 151.656L981.42 210.697C981.42 218.849 974.821 225.457 966.677 225.457L448.58 225.457C440.439 225.457 433.839 218.849 433.839 210.697L433.839 151.656C433.839 143.504 440.439 136.895 448.58 136.895Z" stroke="#444444" stroke-width="1.73651" stroke-linecap="butt" stroke-linejoin="miter" stroke-miterlimit="8" stroke-opacity="1" fill="none" fill-rule="evenodd" transform="matrix(1.00122 0 0 1 145.932 313.178)"/><path d="M642.221 127.152C642.221 124.541 644.34 122.424 646.95 122.424L729.527 122.424C732.138 122.424 734.256 124.541 734.256 127.152L734.256 146.06C734.256 148.671 732.138 150.787 729.527 150.787L646.95 150.787C644.34 150.787 642.221 148.671 642.221 146.06Z" stroke="#444444" stroke-width="1.73651" stroke-linecap="butt" stroke-linejoin="miter" stroke-miterlimit="8" stroke-opacity="1" fill="none" fill-rule="evenodd" transform="matrix(1.00122 0 0 1 145.932 313.178)"/><path d="M448.58 251.505 966.677 251.505C974.821 251.505 981.42 258.07 981.42 266.169L981.42 324.824C981.42 332.923 974.821 339.489 966.677 339.489L734.25 339.489 734.25 333.412C734.25 330.839 732.149 328.753 729.568 328.753L646.8 328.753C644.212 328.753 642.117 330.839 642.117 333.412L642.117 339.489 448.58 339.489C440.439 339.489 433.839 332.923 433.839 324.824L433.839 266.169C433.839 258.07 440.439 251.505 448.58 251.505Z" stroke="#444444" stroke-width="1.73651" stroke-linecap="butt" stroke-linejoin="miter" stroke-miterlimit="8" stroke-opacity="1" fill="none" fill-rule="evenodd" transform="matrix(1.00122 0 0 1 145.932 313.178)"/><text fill="#BFBFBF" fill-opacity="1" font-family="Aptos,Aptos_MSFontService,sans-serif" font-style="normal" font-variant="normal" font-weight="400" font-stretch="normal" font-size="24" text-anchor="start" direction="ltr" writing-mode="lr-tb" unicode-bidi="normal" text-decoration="none" transform="matrix(0.579545 0 0 0.578838 809.106 660)">Numeric</text><path d="M642.221 333.7C642.221 331.143 644.293 329.069 646.852 329.069L729.625 329.069C732.184 329.069 734.256 331.143 734.256 333.7L734.256 352.223C734.256 354.78 732.184 356.854 729.625 356.854L646.852 356.854C644.293 356.854 642.221 354.78 642.221 352.223Z" stroke="#444444" stroke-width="1.73651" stroke-linecap="butt" stroke-linejoin="miter" stroke-miterlimit="8" stroke-opacity="1" fill="none" fill-rule="evenodd" transform="matrix(1.00122 0 0 1 145.932 313.178)"/><path d="M421.973 297.233 397.141 318.072 397.141 305.916C359.024 305.569 352.512 266.844 352.512 266.844 352.512 266.844 366.665 287.422 397.141 287.683L397.141 276.395 421.973 297.233Z" fill="#444444" fill-rule="nonzero" fill-opacity="1" transform="matrix(1.00122 0 0 1 145.932 313.178)"/><path d="M424.867 190.148 400.035 169.31 400.035 181.466C361.919 181.813 355.407 220.537 355.407 220.537 355.407 220.537 369.559 199.96 400.035 199.699L400.035 210.987 424.867 190.148Z" fill="#444444" fill-rule="nonzero" fill-opacity="1" transform="matrix(1.00122 0 0 1 145.932 313.178)"/></g></g></g></g></g></svg>