<svg width="816" height="257" xmlns="http://www.w3.org/2000/svg" xmlns:xlink="http://www.w3.org/1999/xlink" xml:space="preserve" overflow="hidden"><g transform="translate(-252 -336)"><g><g><g><g><text fill="#444444" fill-opacity="1" font-family="Avenir Next LT Pro,Avenir Next LT Pro_MSFontService,sans-serif" font-style="normal" font-variant="normal" font-weight="400" font-stretch="normal" font-size="72" text-anchor="start" direction="ltr" writing-mode="lr-tb" unicode-bidi="normal" text-decoration="none" transform="matrix(0.625767 0 0 0.62439 279.051 470)">User</text><text fill="#444444" fill-opacity="1" font-family="Avenir Next LT Pro,Avenir Next LT Pro_MSFontService,sans-serif" font-style="normal" font-variant="normal" font-weight="400" font-stretch="normal" font-size="72" text-anchor="start" direction="ltr" writing-mode="lr-tb" unicode-bidi="normal" text-decoration="none" transform="matrix(0.625767 0 0 0.62439 384.337 470)">Inpu</text><text fill="#444444" fill-opacity="1" font-family="Avenir Next LT Pro,Avenir Next LT Pro_MSFontService,sans-serif" font-style="normal" font-variant="normal" font-weight="400" font-stretch="normal" font-size="72" text-anchor="start" direction="ltr" writing-mode="lr-tb" unicode-bidi="normal" text-decoration="none" transform="matrix(0.625767 0 0 0.62439 476.95 470)">t</text><text fill="#444444" fill-opacity="1" font-family="Avenir Next LT Pro,Avenir Next LT Pro_MSFontService,sans-serif" font-style="normal" font-variant="normal" font-weight="400" font-stretch="normal" font-size="36" text-anchor="start" direction="ltr" writing-mode="lr-tb" unicode-bidi="normal" text-decoration="none" transform="matrix(0.625767 0 0 0.62439 282.887 502)">Mushroom Faetures</text><text fill="#444444" fill-opacity="1" font-family="Avenir Next LT Pro,Avenir Next LT Pro_MSFontService,sans-serif" font-style="normal" font-variant="normal" font-weight="400" font-stretch="normal" font-size="40" text-anchor="start" direction="ltr" writing-mode="lr-tb" unicode-bidi="normal" text-decoration="none" transform="matrix(0.625767 0 0 0.62439 583.786 571)">Trained Model</text><text fill="#444444" fill-opacity="1" font-family="Avenir Next LT Pro,Avenir Next LT Pro_MSFontService,sans-serif" font-style="normal" font-variant="normal" font-weight="400" font-stretch="normal" font-size="72" text-anchor="start" direction="ltr" writing-mode="lr-tb" unicode-bidi="normal" text-decoration="none" transform="matrix(0.625767 0 0 0.62439 833.037 470)">Prediction</text><text fill="#444444" fill-opacity="1" font-family="Avenir Next LT Pro,Avenir Next LT Pro_MSFontService,sans-serif" font-style="normal" font-variant="normal" font-weight="400" font-stretch="normal" font-size="36" text-anchor="start" direction="ltr" writing-mode="lr-tb" unicode-bidi="normal" text-decoration="none" transform="matrix(0.625767 0 0 0.62439 831.654 502)">Edible or </text><text fill="#444444" fill-opacity="1" font-family="Avenir Next LT Pro,Avenir Next LT Pro_MSFontService,sans-serif" font-style="normal" font-variant="normal" font-weight="400" font-stretch="normal" font-size="36" text-anchor="start" direction="ltr" writing-mode="lr-tb" unicode-bidi="normal" text-decoration="none" transform="matrix(0.625767 0 0 0.62439 930.995 502)">P</text><text fill="#444444" fill-opacity="1" font-family="Avenir Next LT Pro,Avenir Next LT Pro_MSFontService,sans-serif" font-style="normal" font-variant="normal" font-weight="400" font-stretch="normal" font-size="36" text-anchor="start" direction="ltr" writing-mode="lr-tb" unicode-bidi="normal" text-decoration="none" transform="matrix(0.625767 0 0 0.62439 942.521 502)">oisonous</text><path d="M461.424 183.727 495.454 183.727 495.454 171.707 519.493 195.746 495.454 219.785 495.454 207.766 461.424 207.766Z" stroke="#444444" stroke-width="1.06146" stroke-linecap="butt" stroke-linejoin="miter" stroke-miterlimit="8" stroke-opacity="1" fill="none" fill-rule="evenodd" transform="matrix(1.0022 0 0 1 50.5031 283.302)"/><path d="M709.932 183.727 743.961 183.727 743.961 171.707 768 195.746 743.961 219.785 743.961 207.766 709.932 207.766Z" stroke="#444444" stroke-width="1.06146" stroke-linecap="butt" stroke-linejoin="miter" stroke-miterlimit="8" stroke-opacity="1" fill="none" fill-rule="evenodd" transform="matrix(1.0022 0 0 1 50.5031 283.302)"/><path d="M680.155 243.103 649.953 243.103 649.953 220.448 680.155 220.448 680.155 243.103ZM629.816 243.103 599.609 243.103 599.609 220.448 629.816 220.448 629.816 243.103ZM579.473 243.103 549.269 243.103 549.269 220.448 579.473 220.448 579.473 243.103ZM632.332 192.761 632.332 157.522 564.371 192.761 556.819 89.5613 536.683 89.5613 529.132 192.761 529.132 260.722 700.291 260.722 700.291 192.761 700.291 157.522 632.332 192.761Z" fill="#444444" fill-rule="nonzero" fill-opacity="1" transform="matrix(1.0022 0 0 1 50.5031 283.302)"/></g></g></g></g></g></svg>